<svg version="1.1" preserveAspectRatio="none" xmlns="http://www.w3.org/2000/svg" width="500" height="500" viewBox="0 0 500 500"><rect width="100%" height="100%" fill="#F5F5F5" fill-opacity="1"/><svg viewBox="79.423 109.3092 343.3089 307.7143" width="333" height="298.4742367587907" x="83.5px" y="100.7629px" xmlns="http://www.w3.org/2000/svg" xmlns:xlink="http://www.w3.org/1999/xlink" preserveAspectRatio="none"><defs></defs><style>.aLgOaV3zRcolors-3 {fill:#151F35;fill-opacity:1;}.aLgOaV3zRcolors-4 {fill:#BDBDC2;fill-opacity:1;}.aLgOaV3zRcolors-5 {fill:#0AC5A8;fill-opacity:1;}.aLgOaV3zRcolors-6 {fill:#51F3DA;fill-opacity:1;}.aLgOaV3zRcolors-7 {fill:#A7ACB0;fill-opacity:1;}.companyName {fill:#0AC5A8;fill-opacity:1;}.icon1 {fill:#2C3C5B;fill-opacity:1;}.icon2 {fill:#869CB8;fill-opacity:1;}.icon3 {fill:#5E738E;fill-opacity:1;}.icon3-str {stroke:#5E738E;stroke-opacity:1;}.text {fill:#0AC5A8;fill-opacity:1;}</style><g opacity="1" transform="rotate(0 110.8096 393.0235)">
<svg width="280.5358" height="24" x="110.8096" y="393.0235" version="1.1" preserveAspectRatio="none" viewBox="2.6 -30.4 443.2 37.92">
  <g transform="matrix(1 0 0 1 0 0)" class="text"><path id="id-6izo4zJp20" d="M18.72-25.20Q17.28-25.88 15.52-26.36Q13.76-26.84 12.08-26.84L12.08-26.84Q9.28-26.84 7.60-25.46Q5.92-24.08 5.92-21.92L5.92-21.92Q5.92-20.40 6.82-19.34Q7.72-18.28 9.12-17.58Q10.52-16.88 12.72-16.04L12.72-16.04Q15.12-15.16 16.70-14.24Q18.28-13.32 19.36-11.74Q20.44-10.16 20.44-7.68L20.44-7.68Q20.44-5.32 19.32-3.50Q18.20-1.68 16.18-0.68Q14.16 0.32 11.56 0.32L11.56 0.32Q7.04 0.32 2.60-2.60L2.60-2.60L3.52-4.20Q5-3.08 7.16-2.24Q9.32-1.40 11.36-1.40L11.36-1.40Q13.16-1.40 14.78-2.10Q16.40-2.80 17.42-4.22Q18.44-5.64 18.44-7.64L18.44-7.64Q18.44-9.52 17.50-10.80Q16.56-12.08 15.14-12.86Q13.72-13.64 11.56-14.44L11.56-14.44Q9.16-15.32 7.60-16.14Q6.04-16.96 4.98-18.32Q3.92-19.68 3.92-21.72L3.92-21.72Q3.92-23.72 4.94-25.26Q5.96-26.80 7.78-27.66Q9.60-28.52 11.84-28.56L11.84-28.56Q13.76-28.56 15.82-28.04Q17.88-27.52 19.48-26.72L19.48-26.72L18.72-25.20Z M32.36-22.52L34.28-22.52L34.28-15.44L39.12-15.44L39.12-13.92L34.28-13.92L34.28 0L32.36 0L32.36-13.92L29.04-13.92L29.04-15.44L32.36-15.44L32.36-22.52Z M61.36-15.64L63.04-15.64L63.04 0L61.16 0L61.16-3.32Q60.24-1.80 58.36-0.74Q56.48 0.32 54.28 0.32L54.28 0.32Q52.04 0.32 50.22-0.70Q48.40-1.72 47.34-3.58Q46.28-5.44 46.28-7.84L46.28-7.84Q46.28-10.40 47.38-12.26Q48.48-14.12 50.42-15.12Q52.36-16.12 54.80-16.12L54.80-16.12Q56.72-16.12 58.48-15.04Q60.24-13.96 61.16-12.24L61.16-12.24L61.36-15.64ZM54.68-1.28Q57.32-1.28 59.16-2.92Q61-4.56 61.16-7.12L61.16-7.12L61.16-9.36Q60.68-11.56 58.84-13.04Q57-14.52 54.64-14.52L54.64-14.52Q52.84-14.52 51.36-13.70Q49.88-12.88 49.02-11.38Q48.16-9.88 48.16-7.92L48.16-7.92Q48.16-6.12 49.04-4.60Q49.92-3.08 51.42-2.18Q52.92-1.28 54.68-1.28L54.68-1.28Z M85.80-15.64L87.64-15.64L77.56 7.52L75.60 7.52L78.96-0.16L71.72-15.64L73.84-15.64L79.92-2.32L85.80-15.64Z M133.04 0L129.32-9.40L116.80-9.40L113.04 0L111.08 0L123.08-29.64L123.24-29.64L135.24 0L133.04 0ZM117.52-11.24L128.60-11.24L123.12-25.20L117.52-11.24Z M153.24-16.08Q155.40-16.08 156.76-14.78Q158.12-13.48 158.20-11.40L158.20-11.40L158.20 0L156.28 0L156.28-10.88Q156.20-12.44 155.28-13.42Q154.36-14.40 152.64-14.44L152.64-14.44Q151.08-14.44 149.72-13.64Q148.36-12.84 147.54-11.46Q146.72-10.08 146.72-8.40L146.72-8.40L146.72 0L144.84 0L144.84-30.40L146.68-30.40L146.68-12.40Q147.56-14 149.32-15.04Q151.08-16.08 153.24-16.08L153.24-16.08Z M176.16-1.32Q178.68-1.32 180.72-3.04L180.72-3.04L181.68-1.68Q180.52-0.76 179.06-0.22Q177.60 0.32 176.12 0.32L176.12 0.32Q173.72 0.32 171.82-0.76Q169.92-1.84 168.86-3.70Q167.80-5.56 167.80-7.88L167.80-7.88Q167.80-10.12 168.92-12.02Q170.04-13.92 171.96-15.04Q173.88-16.16 176.16-16.16L176.16-16.16Q178.88-16.16 180.80-14.56Q182.72-12.96 183.60-10.24L183.60-10.24L170.24-5.08Q171-3.40 172.58-2.36Q174.16-1.32 176.16-1.32L176.16-1.32ZM176.04-14.56Q174.28-14.56 172.80-13.68Q171.32-12.80 170.48-11.30Q169.64-9.80 169.64-7.96L169.64-7.96Q169.64-7.12 169.80-6.48L169.80-6.48L181.32-11Q180.56-12.60 179.20-13.58Q177.84-14.56 176.04-14.56L176.04-14.56Z M206.36-15.64L208.04-15.64L208.04 0L206.16 0L206.16-3.32Q205.24-1.80 203.36-0.74Q201.48 0.32 199.28 0.32L199.28 0.32Q197.04 0.32 195.22-0.70Q193.40-1.72 192.34-3.58Q191.28-5.44 191.28-7.84L191.28-7.84Q191.28-10.40 192.38-12.26Q193.48-14.12 195.42-15.12Q197.36-16.12 199.80-16.12L199.80-16.12Q201.72-16.12 203.48-15.04Q205.24-13.96 206.16-12.24L206.16-12.24L206.36-15.64ZM199.68-1.28Q202.32-1.28 204.16-2.92Q206.00-4.56 206.16-7.12L206.16-7.12L206.16-9.36Q205.68-11.56 203.84-13.04Q202.00-14.52 199.64-14.52L199.64-14.52Q197.84-14.52 196.36-13.70Q194.88-12.88 194.02-11.38Q193.16-9.88 193.16-7.92L193.16-7.92Q193.16-6.12 194.04-4.60Q194.92-3.08 196.42-2.18Q197.92-1.28 199.68-1.28L199.68-1.28Z M232.64-30.40L234.52-30.40L234.52 0L232.60 0L232.60-3.24Q231.52-1.64 229.64-0.66Q227.76 0.32 225.56 0.32L225.56 0.32Q223.36 0.32 221.54-0.74Q219.72-1.80 218.68-3.70Q217.64-5.60 217.64-7.92L217.64-7.92Q217.64-10.36 218.72-12.24Q219.80-14.12 221.64-15.12Q223.48-16.12 225.76-16.12L225.76-16.12Q227.80-16.12 229.70-15.12Q231.60-14.12 232.64-12.48L232.64-12.48L232.64-30.40ZM226.04-1.32Q228.72-1.32 230.56-3Q232.40-4.68 232.60-7.24L232.60-7.24L232.60-9.24Q232.16-11.52 230.30-13.04Q228.44-14.56 226.04-14.56L226.04-14.56Q224.24-14.56 222.76-13.72Q221.28-12.88 220.40-11.38Q219.52-9.88 219.52-7.96L219.52-7.96Q219.52-6.16 220.40-4.64Q221.28-3.12 222.78-2.22Q224.28-1.32 226.04-1.32L226.04-1.32Z M261.92-15.64L263.80-15.64L263.80 0L261.92 0L261.92-15.64ZM261.52-21.40Q261.52-21.96 261.94-22.34Q262.36-22.72 262.92-22.72L262.92-22.72Q263.48-22.72 263.88-22.34Q264.28-21.96 264.28-21.40L264.28-21.40Q264.28-20.80 263.88-20.42Q263.48-20.04 262.92-20.04L262.92-20.04Q262.36-20.04 261.94-20.44Q261.52-20.84 261.52-21.40L261.52-21.40Z M283.32-16.08Q285.48-16.08 286.84-14.78Q288.20-13.48 288.28-11.40L288.28-11.40L288.28 0L286.36 0L286.36-10.88Q286.28-12.44 285.36-13.42Q284.44-14.40 282.72-14.44L282.72-14.44Q281.12-14.44 279.78-13.68Q278.44-12.92 277.62-11.54Q276.80-10.16 276.80-8.40L276.80-8.40L276.80 0L274.92 0L274.92-15.64L276.56-15.64L276.72-12.16Q277.48-13.96 279.30-15.02Q281.12-16.08 283.32-16.08L283.32-16.08Z M337.04-1.88Q335.48-0.92 333.52-0.30Q331.56 0.32 329.32 0.32L329.32 0.32Q325.04 0.32 321.76-1.60Q318.48-3.52 316.66-6.80Q314.84-10.08 314.84-14L314.84-14Q314.84-18.12 316.72-21.48Q318.60-24.84 321.88-26.78Q325.16-28.72 329.16-28.72L329.16-28.72Q333.36-28.72 336.92-26.56L336.92-26.56L336.08-24.76Q332.72-26.84 329.20-26.84L329.20-26.84Q325.88-26.84 323.04-25.14Q320.20-23.44 318.54-20.50Q316.88-17.56 316.88-14.08L316.88-14.08Q316.88-10.64 318.40-7.78Q319.92-4.92 322.72-3.24Q325.52-1.56 329.20-1.56L329.20-1.56Q332.88-1.56 336.12-3.60L336.12-3.60L337.04-1.88Z M349.12-11.92Q349.96-13.80 351.88-14.92Q353.80-16.04 355.72-16.08L355.72-16.08L355.64-14.24Q353.88-14.24 352.40-13.46Q350.92-12.68 350.06-11.30Q349.20-9.92 349.20-8.28L349.20-8.28L349.20 0L347.32 0L347.32-15.64L348.96-15.64L349.12-11.92Z M376.64-15.64L378.48-15.64L368.40 7.52L366.44 7.52L369.80-0.16L362.56-15.64L364.68-15.64L370.76-2.32L376.64-15.64Z M396.08-16.12Q398.28-16.12 400.10-15.04Q401.92-13.96 402.98-12.06Q404.04-10.16 404.04-7.84L404.04-7.84Q404.04-5.52 402.96-3.64Q401.88-1.76 399.98-0.72Q398.08 0.32 395.80 0.32L395.80 0.32Q393.72 0.32 391.90-0.68Q390.08-1.68 389.04-3.32L389.04-3.32L389.04 7.52L387.16 7.52L387.16-15.76L388.84-15.76L388.96-12.28Q390.08-14.04 391.98-15.08Q393.88-16.12 396.08-16.12L396.08-16.12ZM395.48-1.24Q397.28-1.24 398.80-2.12Q400.32-3 401.22-4.52Q402.12-6.04 402.12-7.84L402.12-7.84Q402.12-9.68 401.26-11.20Q400.40-12.72 398.90-13.60Q397.40-14.48 395.60-14.48L395.60-14.48Q393.88-14.48 392.42-13.68Q390.96-12.88 390.06-11.50Q389.16-10.12 389.04-8.44L389.04-8.44L389.04-7.16Q389.16-5.52 390.06-4.16Q390.96-2.80 392.38-2.02Q393.80-1.24 395.48-1.24L395.48-1.24Z M415.20-22.52L417.12-22.52L417.12-15.44L421.96-15.44L421.96-13.92L417.12-13.92L417.12 0L415.20 0L415.20-13.92L411.88-13.92L411.88-15.44L415.20-15.44L415.20-22.52Z M429.12-7.92Q429.12-10.16 430.22-12.06Q431.32-13.96 433.24-15.06Q435.16-16.16 437.48-16.16L437.48-16.16Q439.80-16.16 441.72-15.06Q443.64-13.96 444.72-12.06Q445.80-10.16 445.80-7.92L445.80-7.92Q445.80-5.64 444.70-3.76Q443.60-1.88 441.70-0.78Q439.80 0.32 437.44 0.32L437.44 0.32Q435.08 0.32 433.18-0.74Q431.28-1.80 430.20-3.68Q429.12-5.56 429.12-7.92L429.12-7.92ZM431.00-7.88Q431.00-6.08 431.86-4.56Q432.72-3.04 434.20-2.16Q435.68-1.28 437.44-1.28L437.44-1.28Q439.20-1.28 440.68-2.16Q442.16-3.04 443.02-4.56Q443.88-6.08 443.88-7.88L443.88-7.88Q443.88-9.68 443.02-11.22Q442.16-12.76 440.68-13.64Q439.20-14.52 437.44-14.52L437.44-14.52Q435.64-14.52 434.16-13.58Q432.68-12.64 431.84-11.12Q431.00-9.60 431.00-7.88L431.00-7.88Z"/></g>
</svg>
</g><g opacity="1" transform="rotate(0 79.423 311.0235)">
<svg width="343.3089" height="60" x="79.423" y="311.0235" version="1.1" preserveAspectRatio="none" viewBox="2.2 -30.12 218.8 38.24">
  <g transform="matrix(1 0 0 1 0 0)" class="companyName"><path id="id-D6z1nYkh10" d="M25.60-2.28Q24.32-1.36 22.06-0.52Q19.80 0.32 17.12 0.32L17.12 0.32Q12.60 0.32 9.22-1.66Q5.84-3.64 4.02-6.98Q2.20-10.32 2.20-14.32L2.20-14.32Q2.20-18.68 4.02-22.12Q5.84-25.56 9.10-27.50Q12.36-29.44 16.52-29.44L16.52-29.44Q19.08-29.44 21.26-28.76Q23.44-28.08 25.12-27.04L25.12-27.04L23.28-22.68Q20.04-24.96 16.68-24.96L16.68-24.96Q14.12-24.96 11.90-23.58Q9.68-22.20 8.36-19.82Q7.04-17.44 7.04-14.60L7.04-14.60Q7.04-11.60 8.26-9.22Q9.48-6.84 11.74-5.50Q14-4.16 16.96-4.16L16.96-4.16Q19.08-4.16 20.78-4.80Q22.48-5.44 23.64-6.44L23.64-6.44L25.60-2.28Z M35.24-13Q35.92-14.36 37.16-15.44Q38.40-16.52 39.70-17.10Q41-17.68 41.88-17.68L41.88-17.68L41.68-13.20Q39.84-13.36 38.40-12.54Q36.96-11.72 36.16-10.30Q35.36-8.88 35.36-7.28L35.36-7.28L35.36 0L30.88 0L30.88-16.92L34.92-16.92L35.24-13Z M59.12-16.92L63.20-16.92L52.28 8.12L47.88 8.12L51.84-0.72L44-16.92L49.04-16.92L54.08-5.72L59.12-16.92Z M78-17.68Q80.36-17.68 82.28-16.56Q84.20-15.44 85.28-13.36Q86.36-11.28 86.36-8.52L86.36-8.52Q86.36-5.80 85.18-3.76Q84-1.72 81.90-0.64Q79.80 0.44 77.16 0.44L77.16 0.44Q75.48 0.44 73.92-0.24Q72.36-0.92 71.36-2.08L71.36-2.08L71.36 8.12L66.88 8.12L66.88-17.24L70.76-17.24L71.16-14.72Q72.48-16.08 74.22-16.88Q75.96-17.68 78-17.68L78-17.68ZM76.28-3.12Q77.76-3.12 79.02-3.82Q80.28-4.52 81.04-5.72Q81.80-6.92 81.80-8.44L81.80-8.44Q81.80-10.80 80.30-12.34Q78.80-13.88 76.60-13.88L76.60-13.88Q74.64-13.88 73.30-12.92Q71.96-11.96 71.36-10.24L71.36-10.24L71.36-6.84Q71.76-5.20 73.10-4.16Q74.44-3.12 76.28-3.12L76.28-3.12Z M92.72-24.36L97.20-24.36L97.20-16.92L101.60-16.92L101.60-13.40L97.20-13.40L97.20 0L92.72 0L92.72-13.40L89.80-13.40L89.80-16.92L92.72-16.92L92.72-24.36Z M104.60-8.64Q104.60-11.16 105.82-13.24Q107.04-15.32 109.20-16.50Q111.36-17.68 114.12-17.68L114.12-17.68Q116.88-17.68 119.02-16.50Q121.16-15.32 122.32-13.26Q123.48-11.20 123.48-8.64L123.48-8.64Q123.48-6.08 122.32-4.02Q121.16-1.96 119.02-0.76Q116.88 0.44 114.08 0.44L114.08 0.44Q111.36 0.44 109.20-0.66Q107.04-1.76 105.82-3.82Q104.60-5.88 104.60-8.64L104.60-8.64ZM109.12-8.60Q109.12-6.32 110.52-4.78Q111.92-3.24 114-3.24L114-3.24Q116.16-3.24 117.54-4.76Q118.92-6.28 118.92-8.60L118.92-8.60Q118.92-10.92 117.54-12.46Q116.16-14 114-14L114-14Q111.92-14 110.52-12.42Q109.12-10.84 109.12-8.60L109.12-8.60Z M150.20-29.12L154.84-29.12L154.84 1.04L154.72 1.04L133.72-19.32L133.84 0L129.12 0L129.12-30.12L129.36-30.12L150.28-9.52L150.20-29.12Z M160.56-8.64Q160.56-11.16 161.78-13.24Q163-15.32 165.16-16.50Q167.32-17.68 170.08-17.68L170.08-17.68Q172.84-17.68 174.98-16.50Q177.12-15.32 178.28-13.26Q179.44-11.20 179.44-8.64L179.44-8.64Q179.44-6.08 178.28-4.02Q177.12-1.96 174.98-0.76Q172.84 0.44 170.04 0.44L170.04 0.44Q167.32 0.44 165.16-0.66Q163-1.76 161.78-3.82Q160.56-5.88 160.56-8.64L160.56-8.64ZM165.08-8.60Q165.08-6.32 166.48-4.78Q167.88-3.24 169.96-3.24L169.96-3.24Q172.12-3.24 173.50-4.76Q174.88-6.28 174.88-8.60L174.88-8.60Q174.88-10.92 173.50-12.46Q172.12-14 169.96-14L169.96-14Q167.88-14 166.48-12.42Q165.08-10.84 165.08-8.60L165.08-8.60Z M195.32-16.92L200.32-16.92L191.04 0.44L190.84 0.44L181.12-16.92L186.44-16.92L191.08-7.24L195.32-16.92Z M216.88-16.92L221-16.92L221 0L216.52 0L216.52-2.44Q215.60-1.36 214.04-0.46Q212.48 0.44 210.40 0.44L210.40 0.44Q207.96 0.44 206.04-0.58Q204.12-1.60 203-3.60Q201.88-5.60 201.88-8.44L201.88-8.44Q201.88-11.20 203.04-13.30Q204.20-15.40 206.14-16.54Q208.08-17.68 210.40-17.68L210.40-17.68Q214.52-17.68 216.56-14.64L216.56-14.64L216.88-16.92ZM211.64-3.24Q213.48-3.24 214.74-4.18Q216-5.12 216.52-6.84L216.52-6.84L216.52-10.52Q216.04-12.08 214.66-13.04Q213.28-14 211.48-14L211.48-14Q209.36-14 207.88-12.50Q206.40-11 206.40-8.68L206.40-8.68Q206.40-7.16 207.12-5.92Q207.84-4.68 209.04-3.96Q210.24-3.24 211.64-3.24L211.64-3.24Z"/></g>
</svg>
</g><g opacity="1" transform="rotate(0 165.2503 109.3092)">
<svg width="171.6543" height="171.7143" x="165.2503" y="109.3092" version="1.1" preserveAspectRatio="none" viewBox="6.250298976898193 6.235048770904541 87.49940490722656 87.5299072265625">
  <g transform="matrix(1 0 0 1 0 0)" class="icon1"><path d="m76.57 50c0-9.4922-5.0625-18.266-13.285-23.012-8.2188-4.7461-18.352-4.7461-26.57 0-8.2227 4.7461-13.285 13.52-13.285 23.012 1.4844 35.258 51.66 35.246 53.141 0zm-25.008 14.941v2.2539c-0.011719 0.85156-0.70703 1.5391-1.5625 1.5391s-1.5508-0.6875-1.5625-1.5391v-2.2539h-8.4727c-0.41406 0.003906-0.8125-0.16016-1.1094-0.45312-0.29297-0.29297-0.45703-0.69141-0.45703-1.1094 0-0.41406 0.16406-0.8125 0.45703-1.1055 0.29688-0.29297 0.69531-0.45703 1.1094-0.45703h1.7812c-0.074219-0.03125 0.17578-23.832-0.10938-23.633-0.85156-0.011719-1.5391-0.71094-1.5391-1.5625 0-0.85547 0.6875-1.5508 1.5391-1.5625h6.8008v-2.2539c0-0.86328 0.69922-1.5625 1.5625-1.5625s1.5625 0.69922 1.5625 1.5625v2.2539h1.7812c3.5625 0.035156 6.6992 2.3477 7.7891 5.7344 1.0938 3.3906-0.10547 7.0977-2.9727 9.207 2.1562 1.5469 3.4336 4.0352 3.4375 6.6914-0.0625 5.5-4.7812 8.8203-10.035 8.25z"></path><path d="m57.816 18.738v-1.5625c0.003906-1.7227 1.4023-3.1211 3.125-3.125h20.508c0.78516 3.0469 3.7148 5.0312 6.8398 4.6367 3.1211-0.39844 5.4609-3.0547 5.4609-6.1992 0-3.1484-2.3398-5.8047-5.4609-6.2031-3.125-0.39453-6.0547 1.5898-6.8398 4.6367h-20.508c-4.3359 0.078125-6.6914 3.7266-6.2539 7.8164 0.015625 0.85547 0.71094 1.5391 1.5664 1.5391 0.85156 0 1.5469-0.68359 1.5625-1.5391z"></path><path d="m18.551 14.051h20.508c1.7227 0.003907 3.1211 1.4023 3.125 3.125v1.5625c0.019531 0.85156 0.71094 1.5352 1.5625 1.5352 0.85156 0 1.5469-0.68359 1.5664-1.5352v-1.5625c0-1.6602-0.66016-3.25-1.832-4.4219s-2.7617-1.832-4.4219-1.832h-20.508c-0.78516-3.0469-3.7148-5.0312-6.8398-4.6367-3.1211 0.39844-5.4609 3.0547-5.4609 6.2031 0 3.1445 2.3398 5.8008 5.4609 6.1992 3.125 0.39453 6.0547-1.5898 6.8398-4.6367z"></path><path d="m81.449 85.949h-20.508c-1.7227-0.003907-3.1211-1.4023-3.125-3.125v-1.5625c-0.019531-0.85156-0.71094-1.5352-1.5625-1.5352-0.85156 0-1.5469 0.68359-1.5664 1.5352v1.5625c0 1.6602 0.66016 3.25 1.832 4.4219s2.7617 1.832 4.4219 1.832h20.508c0.78516 3.0469 3.7148 5.0312 6.8398 4.6367 3.1211-0.39844 5.4609-3.0547 5.4609-6.2031 0-3.1445-2.3398-5.8008-5.4609-6.1992-3.125-0.39453-6.0547 1.5898-6.8398 4.6367z"></path><path d="m42.184 81.262v1.5625c-0.003906 1.7227-1.4023 3.1211-3.125 3.125h-20.508c-0.78516-3.0469-3.7148-5.0312-6.8398-4.6367-3.1211 0.39844-5.4609 3.0547-5.4609 6.1992 0 3.1484 2.3398 5.8047 5.4609 6.2031 3.125 0.39453 6.0547-1.5898 6.8398-4.6367h20.508c4.3359-0.078125 6.6914-3.7266 6.2539-7.8164-0.015625-0.85547-0.71094-1.5391-1.5664-1.5391-0.85156 0-1.5469 0.68359-1.5625 1.5391z"></path><path d="m58.473 43.309c-0.003906-2.8281-2.2969-5.125-5.1289-5.125h-8.4727v10.254h8.4727c2.832-0.003906 5.125-2.2969 5.1289-5.1289z"></path><path d="m53.344 51.562h-8.4727v10.254h8.4727c2.8281-0.003906 5.1172-2.2969 5.1172-5.125s-2.2891-5.125-5.1172-5.1289z"></path></g>
</svg>
</g></svg></svg>